<svg width="25" height="25" viewBox="0 0 25 25" fill="none" xmlns="http://www.w3.org/2000/svg">
<g id="Group">
<path id="Vector" opacity="0.2" d="M23.9434 1.875V22.5C23.9434 22.7486 23.8446 22.9871 23.6688 23.1629C23.493 23.3387 23.2545 23.4375 23.0059 23.4375H2.38086C2.13222 23.4375 1.89376 23.3387 1.71795 23.1629C1.54213 22.9871 1.44336 22.7486 1.44336 22.5V1.875C1.44336 1.62636 1.54213 1.3879 1.71795 1.21209C1.89376 1.03627 2.13222 0.9375 2.38086 0.9375H23.0059C23.2545 0.9375 23.493 1.03627 23.6688 1.21209C23.8446 1.3879 23.9434 1.62636 23.9434 1.875Z" fill="#888D99"/>
<path id="Vector_2" d="M23.0059 0H2.38086C1.88358 0 1.40666 0.197544 1.05503 0.549175C0.703403 0.900805 0.505859 1.37772 0.505859 1.875V22.5C0.505859 22.9973 0.703403 23.4742 1.05503 23.8258C1.40666 24.1775 1.88358 24.375 2.38086 24.375H23.0059C23.5031 24.375 23.9801 24.1775 24.3317 23.8258C24.6833 23.4742 24.8809 22.9973 24.8809 22.5V1.875C24.8809 1.37772 24.6833 0.900805 24.3317 0.549175C23.9801 0.197544 23.5031 0 23.0059 0ZM23.0059 22.5H2.38086V1.875H23.0059V22.5ZM8.94336 10.3125V17.8125C8.94336 18.0611 8.84459 18.2996 8.66877 18.4754C8.49296 18.6512 8.2545 18.75 8.00586 18.75C7.75722 18.75 7.51876 18.6512 7.34295 18.4754C7.16713 18.2996 7.06836 18.0611 7.06836 17.8125V10.3125C7.06836 10.0639 7.16713 9.8254 7.34295 9.64959C7.51876 9.47377 7.75722 9.375 8.00586 9.375C8.2545 9.375 8.49296 9.47377 8.66877 9.64959C8.84459 9.8254 8.94336 10.0639 8.94336 10.3125ZM19.2559 13.5938V17.8125C19.2559 18.0611 19.1571 18.2996 18.9813 18.4754C18.8055 18.6512 18.567 18.75 18.3184 18.75C18.0697 18.75 17.8313 18.6512 17.6554 18.4754C17.4796 18.2996 17.3809 18.0611 17.3809 17.8125V13.5938C17.3809 12.9721 17.1339 12.376 16.6944 11.9365C16.2549 11.4969 15.6587 11.25 15.0371 11.25C14.4155 11.25 13.8194 11.4969 13.3798 11.9365C12.9403 12.376 12.6934 12.9721 12.6934 13.5938V17.8125C12.6934 18.0611 12.5946 18.2996 12.4188 18.4754C12.243 18.6512 12.0045 18.75 11.7559 18.75C11.5072 18.75 11.2688 18.6512 11.0929 18.4754C10.9171 18.2996 10.8184 18.0611 10.8184 17.8125V10.3125C10.8195 10.0829 10.9049 9.86164 11.0584 9.6908C11.2118 9.51996 11.4226 9.41137 11.6508 9.38565C11.879 9.35993 12.1087 9.41885 12.2963 9.55124C12.484 9.68364 12.6165 9.88029 12.6687 10.1039C13.303 9.67368 14.0424 9.42433 14.8076 9.38264C15.5728 9.34095 16.3349 9.50848 17.0121 9.86726C17.6893 10.226 18.256 10.7625 18.6513 11.419C19.0466 12.0756 19.2556 12.8274 19.2559 13.5938ZM9.41211 7.03125C9.41211 7.30938 9.32963 7.58126 9.17511 7.81252C9.02059 8.04378 8.80097 8.22402 8.54401 8.33046C8.28705 8.43689 8.0043 8.46474 7.73151 8.41048C7.45873 8.35622 7.20816 8.22229 7.01149 8.02562C6.81482 7.82895 6.68089 7.57838 6.62663 7.3056C6.57237 7.03281 6.60022 6.75006 6.70665 6.4931C6.81309 6.23614 6.99333 6.01652 7.22459 5.862C7.45585 5.70747 7.72773 5.625 8.00586 5.625C8.37882 5.625 8.73651 5.77316 9.00023 6.03688C9.26395 6.3006 9.41211 6.65829 9.41211 7.03125Z" fill="#888D99"/>
</g>
</svg>
